<svg xmlns="http://www.w3.org/2000/svg" width="145" height="27" fill="none" xmlns:v="https://vecta.io/nano"><g clip-path="url(#A)" fill="#0c71db"><path d="M14.725 13.009a7.6 7.6 0 0 1-.328 2.273 4.61 4.61 0 0 1-1.124 1.872 5.44 5.44 0 0 1-2.125 1.281c-.89.311-2.014.467-3.371.468H6.014v3.948l-.033 1.507c-.023.358-.108.611-.242.772a.99.99 0 0 1-.674.294 12.46 12.46 0 0 1-1.296.052H2.246a12.46 12.46 0 0 1-1.296-.052.99.99 0 0 1-.674-.294c-.133-.16-.219-.42-.242-.778L0 22.845V3.865l.035-1.506c.023-.358.099-.618.242-.78.179-.18.42-.286.674-.294a12.38 12.38 0 0 1 1.296-.052h5.531c1.36 0 2.483.156 3.371.468s1.596.739 2.125 1.281a4.59 4.59 0 0 1 1.124 1.887 7.64 7.64 0 0 1 .328 2.248v5.892zm-8.157-.142c.898 0 1.48-.15 1.746-.451s.399-.785.4-1.454V9.165c0-.67-.133-1.15-.4-1.438s-.849-.444-1.746-.468h-.554v5.609h.554zm25.546 5.684c-.002.825-.113 1.646-.328 2.442a5.94 5.94 0 0 1-1.124 2.217 6.03 6.03 0 0 1-2.125 1.628c-.89.428-2.013.641-3.37.64h-2.559c-1.36 0-2.483-.213-3.37-.64a6.02 6.02 0 0 1-2.126-1.628 5.94 5.94 0 0 1-1.124-2.217 9.42 9.42 0 0 1-.328-2.442V8.161a9.5 9.5 0 0 1 .328-2.424 5.91 5.91 0 0 1 1.124-2.229 6.04 6.04 0 0 1 2.126-1.633c.886-.427 2.01-.641 3.37-.641h2.559c1.359 0 2.482.214 3.37.641.821.378 1.547.936 2.125 1.633.529.656.912 1.418 1.124 2.235.213.791.324 1.606.328 2.424v10.384zm-10.438-1.002a3.68 3.68 0 0 0 .085.867 1.23 1.23 0 0 0 .328.588 1.38 1.38 0 0 0 .674.346c.369.078.746.113 1.124.104.922 0 1.521-.15 1.798-.451s.415-.785.415-1.455V9.166c0-.67-.138-1.155-.415-1.455s-.877-.45-1.802-.451c-.377-.008-.754.027-1.124.104-.252.051-.486.171-.674.346a1.24 1.24 0 0 0-.328.588c-.063.284-.091.575-.085.867l.004 8.383zm21.465-4.196l3.353 6.113 1.953 3.324.9 1.49a1.22 1.22 0 0 1 .224.571c0 .254-.151.421-.45.503a6.2 6.2 0 0 1-1.451.12h-2.936c-.289.005-.577-.012-.863-.052a1.08 1.08 0 0 1-.571-.294 3.8 3.8 0 0 1-.587-.778l-.95-1.507-2.696-5.091v5.091l-.035 1.507c-.023.358-.104.618-.243.778a.98.98 0 0 1-.674.294 12.46 12.46 0 0 1-1.296.052h-1.523a12.4 12.4 0 0 1-1.297-.052.99.99 0 0 1-.674-.294c-.133-.16-.219-.42-.241-.778l-.035-1.507V3.862l.035-1.506c.023-.358.104-.618.241-.78a1 1 0 0 1 .674-.294c.431-.04.864-.057 1.297-.052h1.526a12.36 12.36 0 0 1 1.296.052c.312.035.537.133.674.294s.219.421.243.78l.035 1.506v5.091l2.691-5.091.829-1.506c.158-.294.356-.564.589-.802a1.04 1.04 0 0 1 .622-.294c.23-.022.541-.034.934-.035h2.803a9.29 9.29 0 0 1 1.365.07c.288.047.432.185.432.416a1.59 1.59 0 0 1-.133.484c-.089.232-.337.728-.744 1.49L46.6 7.102l-3.457 6.252zm9.99 12.125a24.08 24.08 0 0 1-1.503-.035c-.356-.024-.617-.103-.778-.242-.18-.179-.285-.421-.294-.675a12.48 12.48 0 0 1-.052-1.298v-1.524l.035-1.159a1.47 1.47 0 0 1 .19-.669c.113-.168.287-.286.485-.329a3.99 3.99 0 0 1 .95-.087V7.26c-.319.01-.638-.019-.95-.086a.79.79 0 0 1-.485-.324 1.47 1.47 0 0 1-.19-.675 14.69 14.69 0 0 1-.035-1.161v-1.53a12.48 12.48 0 0 1 .052-1.298 1 1 0 0 1 .294-.675c.161-.134.42-.219.778-.242l1.503-.035h4.079l1.504.035c.358.023.618.099.778.242a1.01 1.01 0 0 1 .294.675 12.45 12.45 0 0 1 .052 1.298v1.524l-.035 1.161a1.48 1.48 0 0 1-.191.681.78.78 0 0 1-.483.329 4.04 4.04 0 0 1-.95.086v12.192a3.99 3.99 0 0 1 .95.087.78.78 0 0 1 .483.329 1.48 1.48 0 0 1 .191.669l.035 1.159v1.524c.005.433-.012.867-.052 1.299-.009.254-.114.496-.294.675-.161.139-.42.22-.778.242l-1.504.035-4.079.001zm10.27 0c-.645 0-1.147-.011-1.503-.035s-.617-.103-.778-.242c-.18-.179-.285-.421-.294-.675a12.45 12.45 0 0 1-.052-1.298v-1.524l.035-1.159a1.46 1.46 0 0 1 .191-.669.78.78 0 0 1 .483-.329 3.99 3.99 0 0 1 .95-.087V7.26c-.319.01-.638-.019-.95-.086a.78.78 0 0 1-.477-.324 1.46 1.46 0 0 1-.191-.675l-.035-1.161v-1.53a12.48 12.48 0 0 1 .052-1.298 1 1 0 0 1 .294-.675c.155-.143.414-.219.771-.242l1.503-.035h4.08l1.503.035c.358.023.617.104.778.242.18.18.285.421.294.675a12.48 12.48 0 0 1 .052 1.298v1.524l-.035 1.161a1.46 1.46 0 0 1-.191.681.78.78 0 0 1-.483.329 4.04 4.04 0 0 1-.95.086v12.192a3.99 3.99 0 0 1 .95.087.78.78 0 0 1 .483.329 1.46 1.46 0 0 1 .191.669l.035 1.159v1.524c.005.433-.012.867-.052 1.299-.009.254-.114.496-.294.675-.162.139-.421.22-.778.242l-1.503.035-4.08.001zm20.988-7.476c-.633-.025-1.001-.228-1.104-.61s-.153-.979-.152-1.792v-.604a6.95 6.95 0 0 1 .115-1.43c.048-.298.212-.566.456-.743a2 2 0 0 1 .99-.267l1.712-.039h2.135c.611 0 1.086.146 1.428.439.356.314.614.725.742 1.182a6.84 6.84 0 0 1 .267 1.738l.039 2.059c.004 1.112-.118 2.222-.362 3.307-.218 1.008-.639 1.96-1.237 2.799a6.28 6.28 0 0 1-2.346 1.927c-.979.485-2.216.728-3.712.729h-.534c-1.498 0-2.734-.235-3.71-.706-.905-.414-1.705-1.026-2.341-1.792a6.53 6.53 0 0 1-1.235-2.44 10.36 10.36 0 0 1-.362-2.688V7.63a10.44 10.44 0 0 1 .362-2.664 6.52 6.52 0 0 1 1.236-2.459A6.66 6.66 0 0 1 79.118.709c.979-.469 2.215-.704 3.71-.705h.534c1.498 0 2.735.243 3.712.729.926.445 1.729 1.109 2.34 1.936a7.59 7.59 0 0 1 1.237 2.799c.244 1.085.365 2.195.362 3.307l-.039 1.658c-.026.392-.115.678-.267.857s-.4.286-.742.325a13.89 13.89 0 0 1-1.428.058h-1.674a13.97 13.97 0 0 1-1.432-.058c-.343-.039-.59-.146-.742-.325s-.241-.463-.267-.857l-.039-1.658c0-.711-.089-1.246-.267-1.605s-.52-.535-1.028-.535-.85.177-1.028.535-.267.884-.267 1.593v9.175c0 .708.089 1.239.267 1.593s.519.535 1.028.535.843-.171 1.009-.515.265-.863.291-1.549zm24.94 5.8l-.038 1.658c-.026.395-.114.681-.266.857s-.401.286-.743.325c-.474.044-.95.063-1.426.058h-1.675a13.86 13.86 0 0 1-1.427-.058c-.343-.039-.59-.146-.742-.325s-.242-.463-.267-.857l-.039-1.658v-3.7h-3.729v3.7l-.039 1.658c-.026.392-.115.678-.267.857s-.4.286-.742.325a13.89 13.89 0 0 1-1.428.058h-1.672a13.87 13.87 0 0 1-1.427-.058c-.343-.039-.59-.146-.743-.325s-.24-.463-.267-.857l-.039-1.658V7.252c0-1.22.235-2.288.705-3.203.445-.888 1.084-1.665 1.868-2.273.808-.614 1.725-1.068 2.703-1.337a12.01 12.01 0 0 1 6.432 0 7.94 7.94 0 0 1 2.701 1.337c.785.609 1.423 1.385 1.869 2.273.469.915.703 1.982.703 3.203l-.005 16.55zm-6.623-15.444c0-.713-.196-1.248-.588-1.605a1.87 1.87 0 0 0-1.276-.535 1.84 1.84 0 0 0-1.293.535c-.381.357-.571.892-.571 1.605v5.11h3.729v-5.11zm16.905 4.077l1.351-7.15.685-3.699c.19-.774.412-1.231.667-1.372.254-.134.667-.21 1.256-.21h2.51a13.49 13.49 0 0 1 1.428.058c.342.037.59.146.742.324s.24.464.267.859l.039 1.658V23.8l-.039 1.658c-.025.392-.114.678-.267.857s-.4.286-.742.325c-.474.044-.951.063-1.428.057h-1.673a13.91 13.91 0 0 1-1.428-.057c-.342-.039-.59-.146-.742-.325s-.241-.463-.267-.857l-.039-1.658v-3.855l-.362 2.308c-.054.417-.156.826-.304 1.22-.114.267-.254.427-.418.477a2.34 2.34 0 0 1-.667.076h-1.173a2.35 2.35 0 0 1-.668-.076c-.165-.051-.305-.21-.419-.477-.15-.394-.258-.803-.323-1.22-.103-.546-.205-1.316-.305-2.308v3.853l-.038 1.658c-.025.392-.114.678-.267.857s-.4.286-.742.325c-.474.044-.95.063-1.426.057h-1.678a14.17 14.17 0 0 1-1.427-.057c-.343-.039-.59-.146-.742-.325s-.241-.463-.267-.857l-.037-1.658V2.902l.037-1.639a1.53 1.53 0 0 1 .267-.859 1.02 1.02 0 0 1 .317-.242 1 1 0 0 1 .387-.1 11.92 11.92 0 0 1 1.351-.058h2.51a6.43 6.43 0 0 1 .97.058.92.92 0 0 1 .346.137.93.93 0 0 1 .263.264c.165.229.304.598.419 1.106l.417 2.14.629 3.508 1.03 5.219zm22.496 14.262h-9.742a13.84 13.84 0 0 1-1.427-.057c-.344-.039-.591-.146-.743-.325s-.241-.463-.267-.857l-.037-1.658V2.902l.037-1.658c.026-.392.114-.678.267-.859s.4-.286.743-.324c.473-.044.949-.064 1.427-.058h9.742l1.655.037c.394.027.679.115.857.267s.285.401.322.744a13.38 13.38 0 0 1 .058 1.43v1.682a13.38 13.38 0 0 1-.058 1.43c-.037.344-.145.591-.322.745s-.463.241-.857.267l-1.655.039h-5.595v3.127h2.17l1.655.037c.394.027.678.115.857.267s.284.401.324.743l.056 1.43v1.677a14.21 14.21 0 0 1-.056 1.43c-.04.343-.148.591-.324.743s-.463.242-.857.267l-1.655.038h-2.17v3.661h5.595l1.655.038c.394.027.679.115.857.267s.285.401.322.744c.045.475.064.952.058 1.43v1.68a13.38 13.38 0 0 1-.058 1.43c-.037.344-.145.592-.322.744s-.463.242-.857.267l-1.655.033z"/></g><defs><clipPath id="A"><path fill="#fff" d="M0 0h145v27H0z"/></clipPath></defs></svg>